<?xml version="1.0" encoding="utf-8"?>
<!-- Generator: Adobe Illustrator 21.0.2, SVG Export Plug-In . SVG Version: 6.00 Build 0)  -->
<svg version="1.1" id="Layer_1" xmlns="http://www.w3.org/2000/svg" xmlns:xlink="http://www.w3.org/1999/xlink" x="0px" y="0px"
	 viewBox="0 0 100 125" style="enable-background:new 0 0 100 125;" xml:space="preserve">
<path d="M92.7,33.6c0-0.2,0-0.4,0-0.6l-3-10.5v0c-0.1-0.3-0.3-0.6-0.6-0.9c0.3-0.4,0.4-0.9,0.4-1.4v-5c0-1.4-1.2-2.6-2.6-2.6H13.1
	c-1.4,0-2.6,1.2-2.6,2.6v5c0,0.5,0.2,1,0.4,1.4c-0.3,0.2-0.5,0.5-0.6,0.9L7.3,33c-0.1,0.2-0.1,0.4,0,0.6c-0.1,0.2-0.2,0.3-0.2,0.5
	v4.3c0,0.6,0.5,1,1,1h4.1v45.6c0,1.4,1.1,2.5,2.5,2.5h70.6c1.4,0,2.5-1.1,2.5-2.5V39.3h4.1c0.6,0,1-0.5,1-1v-4.3
	C92.9,33.9,92.8,33.7,92.7,33.6z M12.1,15.2c0-0.5,0.4-1,1-1h73.8c0.5,0,1,0.4,1,1v5c0,0.4-0.2,0.7-0.5,0.8H12.6
	c-0.3-0.2-0.5-0.5-0.5-0.8V15.2z M59.1,83C59.1,83,59.1,83,59.1,83l-18.2,0c0,0,0,0,0,0V53h18.2V83z M40.9,52.1v-6.3h8.6v6.3H40.9z
	 M59.1,52.1h-8.6v-6.3h8.6V52.1z M86.1,84.9c0,0.4-0.3,0.8-0.8,0.8h-25c0.1-0.3,0.2-0.6,0.2-0.9V44.8c0-0.5-0.1-0.9-0.4-1.3
	c-0.1-0.2-0.2-0.3-0.4-0.5c-0.4-0.4-1-0.7-1.7-0.7H42c-0.7,0-1.3,0.3-1.7,0.7c-0.1,0.1-0.3,0.3-0.4,0.5c-0.2,0.4-0.4,0.8-0.4,1.3
	v40.1c0,0.3,0.1,0.6,0.2,0.9h-25c-0.4,0-0.8-0.3-0.8-0.8V39.3h72.1V84.9z M90.4,33.6h-2.6h-1.7H13.9h-1.7H9.6
	c-0.3,0-0.5-0.1-0.6-0.2l0.1-0.3L12,23c0-0.1,0.3-0.2,0.6-0.2h0.2c0.1,0,0.2,0,0.3,0h73.8c0.1,0,0.2,0,0.3,0h0.2
	c0.4,0,0.6,0.1,0.6,0.2l2.9,10.1l0.1,0.3C90.9,33.4,90.7,33.6,90.4,33.6z M42.2,68.8h1.5c0.4,0,0.7-0.3,0.7-0.7V62
	c0-0.4-0.3-0.7-0.7-0.7h-1.5c-0.4,0-0.7,0.3-0.7,0.7v6.1C41.5,68.5,41.8,68.8,42.2,68.8z M42.4,62.3h1v5.6h-1V62.3z M64.6,83.5h17.8
	c1.2,0,2.3-1,2.3-2.3V44.6c0-1.2-1-2.3-2.3-2.3H64.6c-1.2,0-2.3,1-2.3,2.3v36.7C62.3,82.5,63.3,83.5,64.6,83.5z M63.7,44.6
	c0-0.5,0.4-0.9,0.9-0.9h17.8c0.5,0,0.9,0.4,0.9,0.9v36.7c0,0.5-0.4,0.9-0.9,0.9h-8.4v-6l4,0l-1.1-7.3h-2.9v-0.2l2.9,0
	c0.1,0,0.2-0.1,0.2-0.2c-0.7-2.6-0.6-5.3-0.5-7l1.5,2.7l1.5-0.9l-1.8-3.2c-0.3-0.5-0.7-0.7-1.3-0.7H75c0,0.1-0.1,0.3-0.1,0.4
	c0-0.2-0.1-0.5-0.1-0.8v-0.5h-2.6V59c0,0.3,0,0.5-0.1,0.8c-0.1-0.1-0.1-0.3-0.1-0.4h-1.5c-0.5,0-1,0.3-1.3,0.7l-1.8,3.2l1.5,0.9
	l1.5-2.7c0.1,1.7,0.1,4.3-0.5,7c0,0.1,0.1,0.2,0.2,0.2l2.9,0v0.2h-2.9L69,76.3l4,0v6h-8.4c-0.5,0-0.9-0.4-0.9-0.9V44.6z M73.4,60.7
	c-0.2,0-0.4-0.1-0.6-0.2c0.1-0.3,0.2-0.7,0.2-1.1h0.8c0,0.4,0.1,0.8,0.2,1.1C73.9,60.6,73.7,60.7,73.4,60.7z M65.1,49.8
	c-0.2-0.2-0.2-0.5,0-0.6l3.6-3.6c0.2-0.2,0.5-0.2,0.6,0c0.2,0.2,0.2,0.5,0,0.6l-3.6,3.6c-0.1,0.1-0.2,0.1-0.3,0.1
	C65.3,50,65.2,49.9,65.1,49.8z M67.8,49.2l3.6-3.6c0.2-0.2,0.5-0.2,0.6,0s0.2,0.5,0,0.6l-3.6,3.6c-0.1,0.1-0.2,0.1-0.3,0.1
	c-0.1,0-0.2,0-0.3-0.1C67.6,49.7,67.6,49.4,67.8,49.2z M17.7,83.5h17.8c1.2,0,2.3-1,2.3-2.3V44.6c0-1.2-1-2.3-2.3-2.3H17.7
	c-1.2,0-2.3,1-2.3,2.3v36.7C15.4,82.5,16.4,83.5,17.7,83.5z M33.6,82.2H29h-0.1v-5.3h4.7V82.2z M16.8,44.6c0-0.5,0.4-0.9,0.9-0.9
	h17.8c0.5,0,0.9,0.4,0.9,0.9v36.7c0,0.5-0.4,0.9-0.9,0.9h-0.7h-0.1v-5.3h0.5v-1.2h-7.8v1.2h0.5v5.3h-3.9v-9.3h2.5c0,0,0.1,0,0.1,0
	c0,0,0-0.1,0-0.1l-0.1-7.1l1.5,0.9c0,0,0.1,0,0.1,0c0,0,0.1,0,0.1-0.1l1-2.3c0-0.1,0-0.2-0.1-0.2l-3.4-2c-0.2,0.3-0.5,0.5-0.7,0.7
	c-0.1-0.3-0.2-0.8-0.2-1.3v-0.5h-2.6v0.5c0,0.5-0.1,1-0.2,1.3c-0.3-0.2-0.5-0.4-0.7-0.7l-3.4,2c-0.1,0-0.1,0.1-0.1,0.2l1,2.3
	c0,0,0,0.1,0.1,0.1c0,0,0.1,0,0.1,0l1.5-0.9l-0.1,7.1c0,0,0,0.1,0,0.1c0,0,0.1,0,0.1,0h2.5v9.3h-5.5c-0.5,0-0.9-0.4-0.9-0.9V44.6z
	 M23.6,63.2c-0.2,0-0.5,0-0.7-0.1c0.1-0.3,0.2-0.8,0.3-1.3H24c0,0.5,0.1,0.9,0.3,1.3C24.1,63.2,23.8,63.2,23.6,63.2z M18.2,49.8
	c-0.2-0.2-0.2-0.5,0-0.6l3.6-3.6c0.2-0.2,0.5-0.2,0.6,0c0.2,0.2,0.2,0.5,0,0.6l-3.6,3.6c-0.1,0.1-0.2,0.1-0.3,0.1
	C18.4,50,18.3,49.9,18.2,49.8z M21,49.2l3.6-3.6c0.2-0.2,0.5-0.2,0.6,0s0.2,0.5,0,0.6l-3.6,3.6c-0.1,0.1-0.2,0.1-0.3,0.1
	c-0.1,0-0.2,0-0.3-0.1C20.8,49.7,20.8,49.4,21,49.2z M28.3,71.9C28.3,71.9,28.3,71.9,28.3,71.9l0,0.6v2.9h6v-2.9v-0.6c0,0,0,0,0-0.1
	c-0.3-1.4-1.5-2.4-3-2.4S28.6,70.5,28.3,71.9z M31.3,74.2c-0.3,0-0.6-0.2-0.6-0.5s0.3-0.5,0.6-0.5c0.3,0,0.6,0.2,0.6,0.5
	S31.6,74.2,31.3,74.2z M31.3,70.4c0.9,0,1.7,0.6,2,1.5h-4C29.5,71,30.3,70.4,31.3,70.4z"/>
</svg>
