<svg aria-hidden="true" style="position: absolute; width: 0; height: 0; overflow: hidden;" version="1.1" xmlns="http://www.w3.org/2000/svg" xmlns:xlink="http://www.w3.org/1999/xlink">
<defs>
<symbol id="icon-bubble" viewBox="0 0 18 18">
<title>bubble</title>
<path d="M9.016 3c2.748 0 4.984 2.243 4.984 5s-2.236 5-4.97 5l-0.060-0.004c-0.055-0.004-0.11-0.007-0.165-0.010l-0.336-0.014-3.665 1.098 0.629-2.483-0.517-0.747c-0.58-0.839-0.886-1.822-0.886-2.842 0-2.757 2.236-5 4.984-5zM9.016 1c-3.857 0-6.984 3.134-6.984 7 0 1.479 0.46 2.848 1.241 3.978l-1.272 5.022 6.722-2.015c0.098 0.004 0.194 0.015 0.293 0.015 3.857 0 6.984-3.134 6.984-7s-3.127-7-6.984-7v0z"></path>
</symbol>
<symbol id="icon-user" viewBox="0 0 18 18">
<title>user</title>
<path d="M13.714 7.654l-0.001 0c0.182-0.519 0.286-1.073 0.286-1.654 0-2.761-2.238-5-5-5s-5 2.239-5 5c0 0.581 0.104 1.135 0.286 1.654v-0c-1.948 0.991-3.286 3.010-3.286 5.345v3c0 0.553 0.448 1.001 1.001 1.001h13.997c0.553 0 1.001-0.448 1.001-1.001v-3c0-2.336-1.337-4.354-3.286-5.345zM9 3c1.654 0 3 1.346 3 3s-1.346 3-3 3c-1.654 0-3-1.346-3-3s1.346-3 3-3zM15 15h-12v-2.001c0-1.604 0.952-2.987 2.318-3.624 0.914 0.997 2.223 1.625 3.682 1.625s2.768-0.628 3.682-1.625c1.366 0.636 2.318 2.020 2.318 3.624v2.001z"></path>
</symbol>
<symbol id="icon-cog" viewBox="0 0 18 18">
<title>cog</title>
<path d="M16.165 7.861l-1.325-0.221c-0.153-0.657-0.413-1.272-0.762-1.826l0.738-1.033c0.281-0.394 0.237-0.934-0.105-1.276l-0.214-0.214c-0.342-0.342-0.882-0.387-1.276-0.105l-1.033 0.738c-0.555-0.349-1.169-0.609-1.826-0.762l-0.221-1.325c-0.080-0.482-0.498-0.836-0.986-0.836h-0.306c-0.489 0-0.906 0.353-0.986 0.836l-0.221 1.325c-0.657 0.153-1.271 0.413-1.826 0.762l-1.033-0.738c-0.394-0.281-0.934-0.237-1.276 0.105l-0.214 0.214c-0.342 0.343-0.387 0.882-0.105 1.276l0.738 1.033c-0.349 0.555-0.609 1.169-0.762 1.826l-1.325 0.221c-0.482 0.081-0.836 0.498-0.836 0.987v0.306c0 0.489 0.353 0.906 0.835 0.986l1.325 0.221c0.153 0.657 0.413 1.272 0.762 1.826l-0.738 1.033c-0.281 0.394-0.237 0.934 0.105 1.276l0.214 0.214c0.342 0.342 0.882 0.387 1.276 0.105l1.033-0.738c0.555 0.349 1.169 0.609 1.826 0.762l0.221 1.325c0.080 0.482 0.498 0.836 0.986 0.836h0.306c0.489 0 0.906-0.353 0.986-0.836l0.221-1.325c0.657-0.153 1.271-0.413 1.826-0.762l1.033 0.738c0.394 0.281 0.934 0.237 1.276-0.105l0.214-0.214c0.342-0.343 0.387-0.882 0.105-1.276l-0.738-1.033c0.349-0.555 0.609-1.169 0.762-1.826l1.325-0.221c0.482-0.080 0.835-0.498 0.835-0.986v-0.306c0-0.489-0.353-0.906-0.835-0.987zM9 12c-1.657 0-3-1.343-3-3s1.343-3 3-3 3 1.343 3 3-1.343 3-3 3z"></path>
</symbol>
<symbol id="icon-heart" viewBox="0 0 18 18">
<title>heart</title>
<path d="M12.5 4c1.378 0 2.5 1.346 2.5 3 0 3.154-3.818 5.713-6 6.8-2.184-1.089-6-3.647-6-6.8 0-1.654 1.122-3 2.5-3 0.643 0 1.347 0.44 1.883 1.177l0.809 0.886c0.399 0.549 1.218 0.549 1.617 0l0.809-0.886c0.536-0.737 1.24-1.177 1.883-1.177zM12.5 2c-1.415 0-2.675 0.866-3.5 2-0.825-1.134-2.085-2-3.5-2-2.485 0-4.5 2.239-4.5 5 0 5.719 8 9 8 9s8-3.281 8-9c0-2.761-2.015-5-4.5-5v0z"></path>
</symbol>
<symbol id="icon-cart" viewBox="0 0 18 18">
<title>cart</title>
<path d="M14.312 9c0.695 0 1.299-0.478 1.459-1.154l1.181-4.982c0.237-0.947-0.479-1.864-1.455-1.864h-13.494c-0.552 0-0.999 0.448-0.999 1s0.448 1 0.999 1h1v8.5c0 0.829 0.671 1.5 1.499 1.5h10.496c0.552 0 0.999-0.448 0.999-1s-0.447-1-0.999-1h-9.996v-2h9.31zM5.002 3h9.863l-0.948 4h-8.915v-4zM5.502 14c-0.828 0-1.5 0.671-1.5 1.5s0.671 1.5 1.5 1.5 1.5-0.671 1.5-1.5-0.671-1.5-1.5-1.5zM13.498 14c-0.828 0-1.499 0.671-1.499 1.5s0.671 1.5 1.499 1.5 1.5-0.671 1.5-1.5-0.671-1.5-1.5-1.5z"></path>
</symbol>
<symbol id="icon-cross" viewBox="0 0 18 18">
<title>cross</title>
<path d="M9 1c-4.418 0-8 3.582-8 8s3.582 8 8 8 8-3.582 8-8-3.582-8-8-8zM9 15c-3.309 0-6-2.691-6-6s2.691-6 6-6 6 2.691 6 6-2.691 6-6 6z"></path>
<path d="M11.722 6.292l-0.014-0.014c-0.371-0.371-0.973-0.371-1.344 0l-1.364 1.364-1.364-1.364c-0.371-0.371-0.973-0.371-1.344 0l-0.014 0.014c-0.371 0.371-0.371 0.973 0 1.344l1.364 1.364-1.364 1.364c-0.371 0.371-0.371 0.973 0 1.344l0.014 0.014c0.371 0.371 0.973 0.371 1.344 0l1.364-1.364 1.364 1.364c0.371 0.371 0.973 0.371 1.344 0l0.014-0.014c0.371-0.371 0.371-0.973 0-1.344l-1.364-1.364 1.364-1.364c0.371-0.371 0.371-0.973 0-1.344z"></path>
</symbol>
</defs>
</svg>
